<?xml version="1.0" encoding="utf-8"?>
<!-- Generator: Adobe Illustrator 25.2.1, SVG Export Plug-In . SVG Version: 6.00 Build 0)  -->
<svg version="1.1" id="Capa_1" xmlns="http://www.w3.org/2000/svg" xmlns:xlink="http://www.w3.org/1999/xlink" x="0px" y="0px"
	 viewBox="0 0 203 204.2" style="enable-background:new 0 0 203 204.2;" xml:space="preserve">
<style type="text/css">
	.st0{fill:#050A02;}
	.st1{fill:#FFFFFF;}
</style>
<polyline id="XMLID_2413_" class="st0" points="211.1,-9.2 211.1,211.6 -8.7,211.6 -8.7,-9.2 "/>
<g id="XMLID_1673_">
	<g id="XMLID_1678_">
		<g>
			<path id="XMLID_39_" class="st1" d="M62.3,40.8l48.1,104.5H92.9l-15.6-34.1H33.5l-16.1,34.1H8.8L58,40.8H62.3z M36.5,104.6h37.6
				L55.6,64.2L36.5,104.6z"/>
			<path id="XMLID_37_" class="st1" d="M143.1,66.5v56c0,2,0.5,3.8,1.4,5.5s2.1,3.2,3.7,4.5c1.6,1.3,3.4,2.3,5.5,3
				c2.1,0.8,4.4,1.1,6.7,1.1c1.6,0,3.2-0.3,5-1s3.5-1.6,5.2-2.8s3.3-2.5,4.8-4.1c1.5-1.5,2.7-3.2,3.7-5V66.2h15.5V145H179v-14.7
				c-1.4,2.3-3.1,4.4-5.2,6.4c-2.1,2-4.3,3.8-6.8,5.2c-2.4,1.5-4.9,2.7-7.5,3.5c-2.6,0.9-5,1.3-7.3,1.3c-3.4,0-6.7-0.6-9.7-1.9
				c-3-1.3-5.7-3-7.9-5.2s-4-4.8-5.3-7.7c-1.3-3-1.9-6.1-1.9-9.5v-56L143.1,66.5L143.1,66.5z"/>
		</g>
	</g>
</g>
</svg>
